<?xml version="1.0" standalone="no"?>
<!DOCTYPE svg PUBLIC '-//W3C//DTD SVG 20001102//EN' 'http://www.w3.org/TR/2000/CR-SVG-20001102/DTD/svg-20001102.dtd'>
<svg xmlns="http://www.w3.org/2000/svg" width="218" x="0" y="0" height="1278" xmlns:xlink="http://www.w3.org/1999/xlink" id="/home/gaussian/Summer_Internship/Acid_Base_adduct/Base/NF3/nf3_sp">
 <path style="stroke:rgb(0,0,0);stroke-width:0;fill:rgb(255,255,255);" d="M 0.000000 0.000000 L 218.000000 0.000000 L 218.000000 1278.000000 L 0.000000 1278.000000 L 0.000000 0.000000 " transform="scale(0.75,0.75)"/>
 <path style="stroke:rgb(0,0,0);stroke-width:0;fill:rgb(255,255,255);" d="M 9.000000 1111.000000 L 176.000000 1111.000000 L 176.000000 1140.000000 L 9.000000 1140.000000 L 9.000000 1111.000000 " transform="scale(0.75,0.75)"/>
 <path style="stroke:rgb(0,0,0);stroke-width:0;fill:rgb(255,255,255);" d="M 9.000000 418.000000 L 176.000000 418.000000 L 176.000000 447.000000 L 9.000000 447.000000 L 9.000000 418.000000 " transform="scale(0.75,0.75)"/>
 <path style="stroke:rgb(0,0,0);stroke-width:0;fill:rgb(255,255,255);" d="M 9.000000 748.000000 L 176.000000 748.000000 L 176.000000 777.000000 L 9.000000 777.000000 L 9.000000 748.000000 " transform="scale(0.75,0.75)"/>
 <path style="stroke:rgb(0,0,0);stroke-width:0;fill:rgb(255,255,255);" d="M 9.000000 814.000000 L 176.000000 814.000000 L 176.000000 843.000000 L 9.000000 843.000000 L 9.000000 814.000000 " transform="scale(0.75,0.75)"/>
 <path style="stroke:rgb(0,0,0);stroke-width:0;fill:rgb(255,255,255);" d="M 9.000000 385.000000 L 176.000000 385.000000 L 176.000000 414.000000 L 9.000000 414.000000 L 9.000000 385.000000 " transform="scale(0.75,0.75)"/>
 <path style="stroke:rgb(0,0,0);stroke-width:0;fill:rgb(255,255,255);" d="M 9.000000 1078.000000 L 176.000000 1078.000000 L 176.000000 1107.000000 L 9.000000 1107.000000 L 9.000000 1078.000000 " transform="scale(0.75,0.75)"/>
 <path style="stroke:rgb(0,0,0);stroke-width:0;fill:rgb(255,255,255);" d="M 9.000000 847.000000 L 176.000000 847.000000 L 176.000000 876.000000 L 9.000000 876.000000 L 9.000000 847.000000 " transform="scale(0.75,0.75)"/>
 <path style="stroke:rgb(0,0,0);stroke-width:0;fill:rgb(255,255,255);" d="M 9.000000 484.000000 L 176.000000 484.000000 L 176.000000 513.000000 L 9.000000 513.000000 L 9.000000 484.000000 " transform="scale(0.75,0.75)"/>
 <path style="stroke:rgb(0,0,0);stroke-width:0;fill:rgb(255,255,255);" d="M 9.000000 451.000000 L 176.000000 451.000000 L 176.000000 480.000000 L 9.000000 480.000000 L 9.000000 451.000000 " transform="scale(0.75,0.75)"/>
 <path style="stroke:rgb(0,0,0);stroke-width:0;fill:rgb(255,255,255);" d="M 9.000000 781.000000 L 176.000000 781.000000 L 176.000000 810.000000 L 9.000000 810.000000 L 9.000000 781.000000 " transform="scale(0.75,0.75)"/>
 <path style="stroke:rgb(0,0,0);stroke-width:0;fill:rgb(255,255,255);" d="M 9.000000 550.000000 L 176.000000 550.000000 L 176.000000 579.000000 L 9.000000 579.000000 L 9.000000 550.000000 " transform="scale(0.75,0.75)"/>
 <path style="stroke:rgb(0,0,0);stroke-width:0;fill:rgb(255,255,255);" d="M 9.000000 715.000000 L 176.000000 715.000000 L 176.000000 744.000000 L 9.000000 744.000000 L 9.000000 715.000000 " transform="scale(0.75,0.75)"/>
 <path style="stroke:rgb(0,0,0);stroke-width:0;fill:rgb(255,255,255);" d="M 9.000000 286.000000 L 176.000000 286.000000 L 176.000000 315.000000 L 9.000000 315.000000 L 9.000000 286.000000 " transform="scale(0.75,0.75)"/>
 <path style="stroke:rgb(0,0,0);stroke-width:0;fill:rgb(255,255,255);" d="M 9.000000 253.000000 L 176.000000 253.000000 L 176.000000 282.000000 L 9.000000 282.000000 L 9.000000 253.000000 " transform="scale(0.75,0.75)"/>
 <path style="stroke:rgb(0,0,0);stroke-width:0;fill:rgb(255,255,255);" d="M 9.000000 220.000000 L 176.000000 220.000000 L 176.000000 249.000000 L 9.000000 249.000000 L 9.000000 220.000000 " transform="scale(0.75,0.75)"/>
 <path style="stroke:rgb(0,0,0);stroke-width:0;fill:rgb(255,255,0);" d="M 9.000000 682.000000 L 176.000000 682.000000 L 176.000000 711.000000 L 9.000000 711.000000 L 9.000000 682.000000 " transform="scale(0.75,0.75)"/>
 <path style="stroke:rgb(0,0,0);stroke-width:0;fill:rgb(255,255,255);" d="M 9.000000 319.000000 L 176.000000 319.000000 L 176.000000 348.000000 L 9.000000 348.000000 L 9.000000 319.000000 " transform="scale(0.75,0.75)"/>
 <path style="stroke:rgb(0,0,0);stroke-width:0;fill:rgb(255,255,255);" d="M 9.000000 1045.000000 L 176.000000 1045.000000 L 176.000000 1074.000000 L 9.000000 1074.000000 L 9.000000 1045.000000 " transform="scale(0.75,0.75)"/>
 <path style="stroke:rgb(0,0,0);stroke-width:0;fill:rgb(255,255,0);" d="M 9.000000 649.000000 L 176.000000 649.000000 L 176.000000 678.000000 L 9.000000 678.000000 L 9.000000 649.000000 " transform="scale(0.75,0.75)"/>
 <path style="stroke:rgb(0,0,0);stroke-width:0;fill:rgb(255,255,255);" d="M 9.000000 1144.000000 L 176.000000 1144.000000 L 176.000000 1173.000000 L 9.000000 1173.000000 L 9.000000 1144.000000 " transform="scale(0.75,0.75)"/>
 <path style="stroke:rgb(0,0,0);stroke-width:0;fill:rgb(255,255,255);" d="M 9.000000 187.000000 L 176.000000 187.000000 L 176.000000 216.000000 L 9.000000 216.000000 L 9.000000 187.000000 " transform="scale(0.75,0.75)"/>
 <path style="stroke:rgb(0,0,0);stroke-width:0;fill:rgb(255,255,255);" d="M 9.000000 154.000000 L 176.000000 154.000000 L 176.000000 183.000000 L 9.000000 183.000000 L 9.000000 154.000000 " transform="scale(0.75,0.75)"/>
 <path style="stroke:rgb(0,0,0);stroke-width:0;fill:rgb(255,255,255);" d="M 9.000000 121.000000 L 176.000000 121.000000 L 176.000000 150.000000 L 9.000000 150.000000 L 9.000000 121.000000 " transform="scale(0.75,0.75)"/>
 <path style="stroke:rgb(0,0,0);stroke-width:0;fill:rgb(255,255,255);" d="M 9.000000 88.000000 L 176.000000 88.000000 L 176.000000 117.000000 L 9.000000 117.000000 L 9.000000 88.000000 " transform="scale(0.75,0.75)"/>
 <path style="stroke:rgb(0,0,0);stroke-width:0;fill:rgb(255,255,255);" d="M 9.000000 55.000000 L 176.000000 55.000000 L 176.000000 84.000000 L 9.000000 84.000000 L 9.000000 55.000000 " transform="scale(0.75,0.75)"/>
 <path style="stroke:rgb(0,0,0);stroke-width:0;fill:rgb(255,255,255);" d="M 9.000000 946.000000 L 176.000000 946.000000 L 176.000000 975.000000 L 9.000000 975.000000 L 9.000000 946.000000 " transform="scale(0.75,0.75)"/>
 <path style="stroke:rgb(0,0,0);stroke-width:0;fill:rgb(255,255,255);" d="M 9.000000 1177.000000 L 176.000000 1177.000000 L 176.000000 1206.000000 L 9.000000 1206.000000 L 9.000000 1177.000000 " transform="scale(0.75,0.75)"/>
 <path style="stroke:rgb(0,0,0);stroke-width:0;fill:rgb(255,255,255);" d="M 9.000000 1210.000000 L 176.000000 1210.000000 L 176.000000 1239.000000 L 9.000000 1239.000000 L 9.000000 1210.000000 " transform="scale(0.75,0.75)"/>
 <path style="stroke:rgb(0,0,0);stroke-width:0;fill:rgb(255,255,255);" d="M 9.000000 913.000000 L 176.000000 913.000000 L 176.000000 942.000000 L 9.000000 942.000000 L 9.000000 913.000000 " transform="scale(0.75,0.75)"/>
 <path style="stroke:rgb(0,0,0);stroke-width:0;fill:rgb(255,255,255);" d="M 9.000000 517.000000 L 176.000000 517.000000 L 176.000000 546.000000 L 9.000000 546.000000 L 9.000000 517.000000 " transform="scale(0.75,0.75)"/>
 <path style="stroke:rgb(0,0,0);stroke-width:0;fill:rgb(255,255,255);" d="M 9.000000 583.000000 L 176.000000 583.000000 L 176.000000 612.000000 L 9.000000 612.000000 L 9.000000 583.000000 " transform="scale(0.75,0.75)"/>
 <path style="stroke:rgb(0,0,0);stroke-width:0;fill:rgb(255,255,255);" d="M 9.000000 352.000000 L 176.000000 352.000000 L 176.000000 381.000000 L 9.000000 381.000000 L 9.000000 352.000000 " transform="scale(0.75,0.75)"/>
 <path style="stroke:rgb(0,0,0);stroke-width:0;fill:rgb(255,255,255);" d="M 9.000000 880.000000 L 176.000000 880.000000 L 176.000000 909.000000 L 9.000000 909.000000 L 9.000000 880.000000 " transform="scale(0.75,0.75)"/>
 <path style="stroke:rgb(0,0,0);stroke-width:0;fill:rgb(255,255,255);" d="M 9.000000 979.000000 L 176.000000 979.000000 L 176.000000 1008.000000 L 9.000000 1008.000000 L 9.000000 979.000000 " transform="scale(0.75,0.75)"/>
 <path style="stroke:rgb(0,0,0);stroke-width:0;fill:rgb(255,255,0);" d="M 9.000000 616.000000 L 176.000000 616.000000 L 176.000000 645.000000 L 9.000000 645.000000 L 9.000000 616.000000 " transform="scale(0.75,0.75)"/>
 <path style="stroke:rgb(0,0,0);stroke-width:0;fill:rgb(255,255,255);" d="M 9.000000 1012.000000 L 176.000000 1012.000000 L 176.000000 1041.000000 L 9.000000 1041.000000 L 9.000000 1012.000000 " transform="scale(0.75,0.75)"/>
 <polyline points="32.000000 829.000000 92.000000 829.000000" style="stroke:rgb(0,0,0);stroke-width:0.9;fill:none;" transform="scale(0.75,0.75)"/>
 <polyline points="32.000000 796.000000 92.000000 796.000000" style="stroke:rgb(0,0,0);stroke-width:0.9;fill:none;" transform="scale(0.75,0.75)"/>
 <path style="stroke:rgb(0,0,0);stroke-width:0.9;fill:rgb(192,192,192);" d="M 190.000000 659.000000 L 200.000000 659.000000 L 200.000000 669.000000 L 190.000000 669.000000 L 190.000000 659.000000 " transform="scale(0.75,0.75)"/>
 <polyline points="10.000000 679.000000 180.000000 679.000000" style="stroke:rgb(0,255,0);stroke-width:2;stroke-dasharray:3;fill:none;" transform="scale(0.75,0.75)"/>
 <polyline points="32.000000 1027.000000 92.000000 1027.000000" style="stroke:rgb(0,0,0);stroke-width:0.9;fill:none;" transform="scale(0.75,0.75)"/>
 <polyline points="32.000000 1060.000000 92.000000 1060.000000" style="stroke:rgb(0,0,0);stroke-width:0.9;fill:none;" transform="scale(0.75,0.75)"/>
 <polyline points="32.000000 895.000000 92.000000 895.000000" style="stroke:rgb(0,0,0);stroke-width:0.9;fill:none;" transform="scale(0.75,0.75)"/>
 <polyline points="32.000000 1093.000000 92.000000 1093.000000" style="stroke:rgb(0,0,0);stroke-width:0.9;fill:none;" transform="scale(0.75,0.75)"/>
 <polyline points="32.000000 1192.000000 92.000000 1192.000000" style="stroke:rgb(0,0,0);stroke-width:0.9;fill:none;" transform="scale(0.75,0.75)"/>
 <polyline points="32.000000 1126.000000 92.000000 1126.000000" style="stroke:rgb(0,0,0);stroke-width:0.9;fill:none;" transform="scale(0.75,0.75)"/>
 <polyline points="32.000000 862.000000 92.000000 862.000000" style="stroke:rgb(0,0,0);stroke-width:0.9;fill:none;" transform="scale(0.75,0.75)"/>
 <polyline points="32.000000 763.000000 92.000000 763.000000" style="stroke:rgb(0,0,0);stroke-width:0.9;fill:none;" transform="scale(0.75,0.75)"/>
 <polyline points="32.000000 730.000000 92.000000 730.000000" style="stroke:rgb(0,0,0);stroke-width:0.9;fill:none;" transform="scale(0.75,0.75)"/>
 <polyline points="32.000000 697.000000 92.000000 697.000000" style="stroke:rgb(0,0,0);stroke-width:0.9;fill:none;" transform="scale(0.75,0.75)"/>
 <polyline points="32.000000 664.000000 92.000000 664.000000" style="stroke:rgb(0,0,0);stroke-width:0.9;fill:none;" transform="scale(0.75,0.75)"/>
 <polyline points="32.000000 631.000000 92.000000 631.000000" style="stroke:rgb(0,0,0);stroke-width:0.9;fill:none;" transform="scale(0.75,0.75)"/>
 <polyline points="32.000000 598.000000 92.000000 598.000000" style="stroke:rgb(0,0,0);stroke-width:0.9;fill:none;" transform="scale(0.75,0.75)"/>
 <polyline points="32.000000 565.000000 92.000000 565.000000" style="stroke:rgb(0,0,0);stroke-width:0.9;fill:none;" transform="scale(0.75,0.75)"/>
 <path style="stroke:rgb(0,0,0);stroke-width:0.9;fill:rgb(255,0,0);" d="M 190.000000 692.000000 L 200.000000 692.000000 L 200.000000 702.000000 L 190.000000 702.000000 L 190.000000 692.000000 " transform="scale(0.75,0.75)"/>
 <polyline points="32.000000 961.000000 92.000000 961.000000" style="stroke:rgb(0,0,0);stroke-width:0.9;fill:none;" transform="scale(0.75,0.75)"/>
 <polyline points="32.000000 532.000000 92.000000 532.000000" style="stroke:rgb(0,0,0);stroke-width:0.9;fill:none;" transform="scale(0.75,0.75)"/>
 <polyline points="32.000000 499.000000 92.000000 499.000000" style="stroke:rgb(0,0,0);stroke-width:0.9;fill:none;" transform="scale(0.75,0.75)"/>
 <polyline points="32.000000 466.000000 92.000000 466.000000" style="stroke:rgb(0,0,0);stroke-width:0.9;fill:none;" transform="scale(0.75,0.75)"/>
 <polyline points="32.000000 433.000000 92.000000 433.000000" style="stroke:rgb(0,0,0);stroke-width:0.9;fill:none;" transform="scale(0.75,0.75)"/>
 <polyline points="32.000000 400.000000 92.000000 400.000000" style="stroke:rgb(0,0,0);stroke-width:0.9;fill:none;" transform="scale(0.75,0.75)"/>
 <polyline points="32.000000 367.000000 92.000000 367.000000" style="stroke:rgb(0,0,0);stroke-width:0.9;fill:none;" transform="scale(0.75,0.75)"/>
 <polyline points="32.000000 334.000000 92.000000 334.000000" style="stroke:rgb(0,0,0);stroke-width:0.9;fill:none;" transform="scale(0.75,0.75)"/>
 <polyline points="32.000000 301.000000 92.000000 301.000000" style="stroke:rgb(0,0,0);stroke-width:0.9;fill:none;" transform="scale(0.75,0.75)"/>
 <polyline points="32.000000 268.000000 92.000000 268.000000" style="stroke:rgb(0,0,0);stroke-width:0.9;fill:none;" transform="scale(0.75,0.75)"/>
 <polyline points="32.000000 235.000000 92.000000 235.000000" style="stroke:rgb(0,0,0);stroke-width:0.9;fill:none;" transform="scale(0.75,0.75)"/>
 <polyline points="32.000000 1159.000000 92.000000 1159.000000" style="stroke:rgb(0,0,0);stroke-width:0.9;fill:none;" transform="scale(0.75,0.75)"/>
 <polyline points="32.000000 202.000000 92.000000 202.000000" style="stroke:rgb(0,0,0);stroke-width:0.9;fill:none;" transform="scale(0.75,0.75)"/>
 <polyline points="32.000000 169.000000 92.000000 169.000000" style="stroke:rgb(0,0,0);stroke-width:0.9;fill:none;" transform="scale(0.75,0.75)"/>
 <polyline points="32.000000 136.000000 92.000000 136.000000" style="stroke:rgb(0,0,0);stroke-width:0.9;fill:none;" transform="scale(0.75,0.75)"/>
 <polyline points="32.000000 103.000000 92.000000 103.000000" style="stroke:rgb(0,0,0);stroke-width:0.9;fill:none;" transform="scale(0.75,0.75)"/>
 <polyline points="32.000000 70.000000 92.000000 70.000000" style="stroke:rgb(0,0,0);stroke-width:0.9;fill:none;" transform="scale(0.75,0.75)"/>
 <path style="stroke:rgb(0,0,0);stroke-width:0.9;fill:rgb(192,192,192);" d="M 190.000000 626.000000 L 200.000000 626.000000 L 200.000000 636.000000 L 190.000000 636.000000 L 190.000000 626.000000 " transform="scale(0.75,0.75)"/>
 <polyline points="32.000000 928.000000 92.000000 928.000000" style="stroke:rgb(0,0,0);stroke-width:0.9;fill:none;" transform="scale(0.75,0.75)"/>
 <polyline points="32.000000 1225.000000 92.000000 1225.000000" style="stroke:rgb(0,0,0);stroke-width:0.9;fill:none;" transform="scale(0.75,0.75)"/>
 <polyline points="32.000000 994.000000 92.000000 994.000000" style="stroke:rgb(0,0,0);stroke-width:0.9;fill:none;" transform="scale(0.75,0.75)"/>
 <path style="stroke:rgb(0,0,0);stroke-width:0.9;fill:rgb(161,191,223);" d="M 48.000000 881.000000 L 75.000000 881.000000 L 75.000000 908.000000 L 48.000000 908.000000 L 48.000000 881.000000 " transform="scale(0.75,0.75)"/>
 <path style="stroke:rgb(0,0,0);stroke-width:0.9;fill:rgb(161,191,223);" d="M 48.000000 1211.000000 L 75.000000 1211.000000 L 75.000000 1238.000000 L 48.000000 1238.000000 L 48.000000 1211.000000 " transform="scale(0.75,0.75)"/>
 <path style="stroke:rgb(0,0,0);stroke-width:0.9;fill:rgb(161,191,223);" d="M 48.000000 485.000000 L 75.000000 485.000000 L 75.000000 512.000000 L 48.000000 512.000000 L 48.000000 485.000000 " transform="scale(0.75,0.75)"/>
 <path style="stroke:rgb(0,0,0);stroke-width:0.9;fill:rgb(161,191,223);" d="M 48.000000 716.000000 L 75.000000 716.000000 L 75.000000 743.000000 L 48.000000 743.000000 L 48.000000 716.000000 " transform="scale(0.75,0.75)"/>
 <path style="stroke:rgb(0,0,0);stroke-width:0.9;fill:rgb(161,191,223);" d="M 48.000000 848.000000 L 75.000000 848.000000 L 75.000000 875.000000 L 48.000000 875.000000 L 48.000000 848.000000 " transform="scale(0.75,0.75)"/>
 <path style="stroke:rgb(0,0,0);stroke-width:0.9;fill:rgb(161,191,223);" d="M 48.000000 1046.000000 L 75.000000 1046.000000 L 75.000000 1073.000000 L 48.000000 1073.000000 L 48.000000 1046.000000 " transform="scale(0.75,0.75)"/>
 <path style="stroke:rgb(0,0,0);stroke-width:0.9;fill:rgb(161,191,223);" d="M 48.000000 683.000000 L 75.000000 683.000000 L 75.000000 710.000000 L 48.000000 710.000000 L 48.000000 683.000000 " transform="scale(0.75,0.75)"/>
 <path style="stroke:rgb(0,0,0);stroke-width:0.9;fill:rgb(161,191,223);" d="M 48.000000 551.000000 L 75.000000 551.000000 L 75.000000 578.000000 L 48.000000 578.000000 L 48.000000 551.000000 " transform="scale(0.75,0.75)"/>
 <path style="stroke:rgb(0,0,0);stroke-width:0.9;fill:rgb(161,191,223);" d="M 48.000000 1013.000000 L 75.000000 1013.000000 L 75.000000 1040.000000 L 48.000000 1040.000000 L 48.000000 1013.000000 " transform="scale(0.75,0.75)"/>
 <path style="stroke:rgb(0,0,0);stroke-width:0.9;fill:rgb(161,191,223);" d="M 48.000000 980.000000 L 75.000000 980.000000 L 75.000000 1007.000000 L 48.000000 1007.000000 L 48.000000 980.000000 " transform="scale(0.75,0.75)"/>
 <path style="stroke:rgb(0,0,0);stroke-width:0.9;fill:rgb(161,191,223);" d="M 48.000000 287.000000 L 75.000000 287.000000 L 75.000000 314.000000 L 48.000000 314.000000 L 48.000000 287.000000 " transform="scale(0.75,0.75)"/>
 <path style="stroke:rgb(0,0,0);stroke-width:0.9;fill:rgb(161,191,223);" d="M 48.000000 782.000000 L 75.000000 782.000000 L 75.000000 809.000000 L 48.000000 809.000000 L 48.000000 782.000000 " transform="scale(0.75,0.75)"/>
 <path style="stroke:rgb(0,0,0);stroke-width:0.9;fill:rgb(161,191,223);" d="M 48.000000 386.000000 L 75.000000 386.000000 L 75.000000 413.000000 L 48.000000 413.000000 L 48.000000 386.000000 " transform="scale(0.75,0.75)"/>
 <path style="stroke:rgb(0,0,0);stroke-width:0.9;fill:rgb(161,191,223);" d="M 48.000000 1079.000000 L 75.000000 1079.000000 L 75.000000 1106.000000 L 48.000000 1106.000000 L 48.000000 1079.000000 " transform="scale(0.75,0.75)"/>
 <path style="stroke:rgb(0,0,0);stroke-width:0.9;fill:rgb(161,191,223);" d="M 48.000000 947.000000 L 75.000000 947.000000 L 75.000000 974.000000 L 48.000000 974.000000 L 48.000000 947.000000 " transform="scale(0.75,0.75)"/>
 <path style="stroke:rgb(0,0,0);stroke-width:0.9;fill:rgb(161,191,223);" d="M 48.000000 254.000000 L 75.000000 254.000000 L 75.000000 281.000000 L 48.000000 281.000000 L 48.000000 254.000000 " transform="scale(0.75,0.75)"/>
 <path style="stroke:rgb(0,0,0);stroke-width:0.9;fill:rgb(161,191,223);" d="M 48.000000 221.000000 L 75.000000 221.000000 L 75.000000 248.000000 L 48.000000 248.000000 L 48.000000 221.000000 " transform="scale(0.75,0.75)"/>
 <path style="stroke:rgb(0,0,0);stroke-width:0.9;fill:rgb(161,191,223);" d="M 48.000000 518.000000 L 75.000000 518.000000 L 75.000000 545.000000 L 48.000000 545.000000 L 48.000000 518.000000 " transform="scale(0.75,0.75)"/>
 <path style="stroke:rgb(0,0,0);stroke-width:0.9;fill:rgb(161,191,223);" d="M 48.000000 815.000000 L 75.000000 815.000000 L 75.000000 842.000000 L 48.000000 842.000000 L 48.000000 815.000000 " transform="scale(0.75,0.75)"/>
 <path style="stroke:rgb(0,0,0);stroke-width:0.9;fill:rgb(161,191,223);" d="M 48.000000 1112.000000 L 75.000000 1112.000000 L 75.000000 1139.000000 L 48.000000 1139.000000 L 48.000000 1112.000000 " transform="scale(0.75,0.75)"/>
 <path style="stroke:rgb(0,0,0);stroke-width:0.9;fill:rgb(161,191,223);" d="M 48.000000 452.000000 L 75.000000 452.000000 L 75.000000 479.000000 L 48.000000 479.000000 L 48.000000 452.000000 " transform="scale(0.75,0.75)"/>
 <path style="stroke:rgb(0,0,0);stroke-width:0.9;fill:rgb(161,191,223);" d="M 48.000000 320.000000 L 75.000000 320.000000 L 75.000000 347.000000 L 48.000000 347.000000 L 48.000000 320.000000 " transform="scale(0.75,0.75)"/>
 <path style="stroke:rgb(0,0,0);stroke-width:0.9;fill:rgb(161,191,223);" d="M 48.000000 188.000000 L 75.000000 188.000000 L 75.000000 215.000000 L 48.000000 215.000000 L 48.000000 188.000000 " transform="scale(0.75,0.75)"/>
 <path style="stroke:rgb(0,0,0);stroke-width:0.9;fill:rgb(161,191,223);" d="M 48.000000 155.000000 L 75.000000 155.000000 L 75.000000 182.000000 L 48.000000 182.000000 L 48.000000 155.000000 " transform="scale(0.75,0.75)"/>
 <path style="stroke:rgb(0,0,0);stroke-width:0.9;fill:rgb(161,191,223);" d="M 48.000000 122.000000 L 75.000000 122.000000 L 75.000000 149.000000 L 48.000000 149.000000 L 48.000000 122.000000 " transform="scale(0.75,0.75)"/>
 <path style="stroke:rgb(0,0,0);stroke-width:0.9;fill:rgb(161,191,223);" d="M 48.000000 89.000000 L 75.000000 89.000000 L 75.000000 116.000000 L 48.000000 116.000000 L 48.000000 89.000000 " transform="scale(0.75,0.75)"/>
 <path style="stroke:rgb(0,0,0);stroke-width:0.9;fill:rgb(161,191,223);" d="M 48.000000 56.000000 L 75.000000 56.000000 L 75.000000 83.000000 L 48.000000 83.000000 L 48.000000 56.000000 " transform="scale(0.75,0.75)"/>
 <path style="stroke:rgb(0,0,0);stroke-width:0.9;fill:rgb(161,191,223);" d="M 48.000000 650.000000 L 75.000000 650.000000 L 75.000000 677.000000 L 48.000000 677.000000 L 48.000000 650.000000 " transform="scale(0.75,0.75)"/>
 <path style="stroke:rgb(0,0,0);stroke-width:0.9;fill:rgb(161,191,223);" d="M 48.000000 617.000000 L 75.000000 617.000000 L 75.000000 644.000000 L 48.000000 644.000000 L 48.000000 617.000000 " transform="scale(0.75,0.75)"/>
 <path style="stroke:rgb(0,0,0);stroke-width:0.9;fill:rgb(161,191,223);" d="M 48.000000 353.000000 L 75.000000 353.000000 L 75.000000 380.000000 L 48.000000 380.000000 L 48.000000 353.000000 " transform="scale(0.75,0.75)"/>
 <path style="stroke:rgb(0,0,0);stroke-width:0.9;fill:rgb(161,191,223);" d="M 48.000000 749.000000 L 75.000000 749.000000 L 75.000000 776.000000 L 48.000000 776.000000 L 48.000000 749.000000 " transform="scale(0.75,0.75)"/>
 <path style="stroke:rgb(0,0,0);stroke-width:0.9;fill:rgb(161,191,223);" d="M 48.000000 1178.000000 L 75.000000 1178.000000 L 75.000000 1205.000000 L 48.000000 1205.000000 L 48.000000 1178.000000 " transform="scale(0.75,0.75)"/>
 <path style="stroke:rgb(0,0,0);stroke-width:0.9;fill:rgb(161,191,223);" d="M 48.000000 1145.000000 L 75.000000 1145.000000 L 75.000000 1172.000000 L 48.000000 1172.000000 L 48.000000 1145.000000 " transform="scale(0.75,0.75)"/>
 <path style="stroke:rgb(0,0,0);stroke-width:0.9;fill:rgb(161,191,223);" d="M 48.000000 419.000000 L 75.000000 419.000000 L 75.000000 446.000000 L 48.000000 446.000000 L 48.000000 419.000000 " transform="scale(0.75,0.75)"/>
 <path style="stroke:rgb(0,0,0);stroke-width:0.9;fill:rgb(161,191,223);" d="M 48.000000 584.000000 L 75.000000 584.000000 L 75.000000 611.000000 L 48.000000 611.000000 L 48.000000 584.000000 " transform="scale(0.75,0.75)"/>
 <path style="stroke:rgb(0,0,0);stroke-width:0.9;fill:rgb(161,191,223);" d="M 48.000000 914.000000 L 75.000000 914.000000 L 75.000000 941.000000 L 48.000000 941.000000 L 48.000000 914.000000 " transform="scale(0.75,0.75)"/>
 <polyline points="56.000000 819.000000 56.000000 837.000000" style="stroke:rgb(255,0,0);stroke-width:0.9;fill:none;" transform="scale(0.75,0.75)"/>
 <polyline points="66.000000 837.000000 66.000000 819.000000" style="stroke:rgb(255,0,0);stroke-width:0.9;fill:none;" transform="scale(0.75,0.75)"/>
 <polyline points="56.000000 786.000000 56.000000 804.000000" style="stroke:rgb(255,0,0);stroke-width:0.9;fill:none;" transform="scale(0.75,0.75)"/>
 <polygon points="56.000000 819.000000 52.000000 826.000000 56.000000 823.000000" style="stroke:rgb(0,0,0);stroke-width:0;fill:rgb(255,0,0);" transform="scale(0.75,0.75)"/>
 <polyline points="56.000000 819.000000 52.000000 826.000000 56.000000 823.000000" style="stroke:rgb(255,0,0);stroke-width:0.9;fill:none;" transform="scale(0.75,0.75)"/>
 <polygon points="66.000000 705.000000 70.000000 698.000000 66.000000 701.000000" style="stroke:rgb(0,0,0);stroke-width:0;fill:rgb(255,0,0);" transform="scale(0.75,0.75)"/>
 <polyline points="66.000000 705.000000 70.000000 698.000000 66.000000 701.000000" style="stroke:rgb(255,0,0);stroke-width:0.9;fill:none;" transform="scale(0.75,0.75)"/>
 <polygon points="56.000000 984.000000 52.000000 991.000000 56.000000 988.000000" style="stroke:rgb(0,0,0);stroke-width:0;fill:rgb(255,0,0);" transform="scale(0.75,0.75)"/>
 <polyline points="56.000000 984.000000 52.000000 991.000000 56.000000 988.000000" style="stroke:rgb(255,0,0);stroke-width:0.9;fill:none;" transform="scale(0.75,0.75)"/>
 <polyline points="66.000000 1167.000000 66.000000 1149.000000" style="stroke:rgb(255,0,0);stroke-width:0.9;fill:none;" transform="scale(0.75,0.75)"/>
 <polygon points="56.000000 687.000000 52.000000 694.000000 56.000000 691.000000" style="stroke:rgb(0,0,0);stroke-width:0;fill:rgb(255,0,0);" transform="scale(0.75,0.75)"/>
 <polyline points="56.000000 687.000000 52.000000 694.000000 56.000000 691.000000" style="stroke:rgb(255,0,0);stroke-width:0.9;fill:none;" transform="scale(0.75,0.75)"/>
 <polyline points="56.000000 984.000000 56.000000 1002.000000" style="stroke:rgb(255,0,0);stroke-width:0.9;fill:none;" transform="scale(0.75,0.75)"/>
 <polygon points="66.000000 1002.000000 70.000000 995.000000 66.000000 998.000000" style="stroke:rgb(0,0,0);stroke-width:0;fill:rgb(255,0,0);" transform="scale(0.75,0.75)"/>
 <polyline points="66.000000 1002.000000 70.000000 995.000000 66.000000 998.000000" style="stroke:rgb(255,0,0);stroke-width:0.9;fill:none;" transform="scale(0.75,0.75)"/>
 <polyline points="56.000000 885.000000 56.000000 903.000000" style="stroke:rgb(255,0,0);stroke-width:0.9;fill:none;" transform="scale(0.75,0.75)"/>
 <polyline points="66.000000 903.000000 66.000000 885.000000" style="stroke:rgb(255,0,0);stroke-width:0.9;fill:none;" transform="scale(0.75,0.75)"/>
 <polyline points="56.000000 1083.000000 56.000000 1101.000000" style="stroke:rgb(255,0,0);stroke-width:0.9;fill:none;" transform="scale(0.75,0.75)"/>
 <polyline points="56.000000 1215.000000 56.000000 1233.000000" style="stroke:rgb(255,0,0);stroke-width:0.9;fill:none;" transform="scale(0.75,0.75)"/>
 <polygon points="66.000000 969.000000 70.000000 962.000000 66.000000 965.000000" style="stroke:rgb(0,0,0);stroke-width:0;fill:rgb(255,0,0);" transform="scale(0.75,0.75)"/>
 <polyline points="66.000000 969.000000 70.000000 962.000000 66.000000 965.000000" style="stroke:rgb(255,0,0);stroke-width:0.9;fill:none;" transform="scale(0.75,0.75)"/>
 <polygon points="56.000000 786.000000 52.000000 793.000000 56.000000 790.000000" style="stroke:rgb(0,0,0);stroke-width:0;fill:rgb(255,0,0);" transform="scale(0.75,0.75)"/>
 <polyline points="56.000000 786.000000 52.000000 793.000000 56.000000 790.000000" style="stroke:rgb(255,0,0);stroke-width:0.9;fill:none;" transform="scale(0.75,0.75)"/>
 <polygon points="66.000000 771.000000 70.000000 764.000000 66.000000 767.000000" style="stroke:rgb(0,0,0);stroke-width:0;fill:rgb(255,0,0);" transform="scale(0.75,0.75)"/>
 <polyline points="66.000000 771.000000 70.000000 764.000000 66.000000 767.000000" style="stroke:rgb(255,0,0);stroke-width:0.9;fill:none;" transform="scale(0.75,0.75)"/>
 <polygon points="56.000000 918.000000 52.000000 925.000000 56.000000 922.000000" style="stroke:rgb(0,0,0);stroke-width:0;fill:rgb(255,0,0);" transform="scale(0.75,0.75)"/>
 <polyline points="56.000000 918.000000 52.000000 925.000000 56.000000 922.000000" style="stroke:rgb(255,0,0);stroke-width:0.9;fill:none;" transform="scale(0.75,0.75)"/>
 <polygon points="66.000000 903.000000 70.000000 896.000000 66.000000 899.000000" style="stroke:rgb(0,0,0);stroke-width:0;fill:rgb(255,0,0);" transform="scale(0.75,0.75)"/>
 <polyline points="66.000000 903.000000 70.000000 896.000000 66.000000 899.000000" style="stroke:rgb(255,0,0);stroke-width:0.9;fill:none;" transform="scale(0.75,0.75)"/>
 <polyline points="66.000000 1200.000000 66.000000 1182.000000" style="stroke:rgb(255,0,0);stroke-width:0.9;fill:none;" transform="scale(0.75,0.75)"/>
 <polyline points="56.000000 852.000000 56.000000 870.000000" style="stroke:rgb(255,0,0);stroke-width:0.9;fill:none;" transform="scale(0.75,0.75)"/>
 <polyline points="66.000000 870.000000 66.000000 852.000000" style="stroke:rgb(255,0,0);stroke-width:0.9;fill:none;" transform="scale(0.75,0.75)"/>
 <polyline points="66.000000 804.000000 66.000000 786.000000" style="stroke:rgb(255,0,0);stroke-width:0.9;fill:none;" transform="scale(0.75,0.75)"/>
 <polyline points="56.000000 753.000000 56.000000 771.000000" style="stroke:rgb(255,0,0);stroke-width:0.9;fill:none;" transform="scale(0.75,0.75)"/>
 <polyline points="66.000000 771.000000 66.000000 753.000000" style="stroke:rgb(255,0,0);stroke-width:0.9;fill:none;" transform="scale(0.75,0.75)"/>
 <polyline points="56.000000 720.000000 56.000000 738.000000" style="stroke:rgb(255,0,0);stroke-width:0.9;fill:none;" transform="scale(0.75,0.75)"/>
 <polyline points="66.000000 738.000000 66.000000 720.000000" style="stroke:rgb(255,0,0);stroke-width:0.9;fill:none;" transform="scale(0.75,0.75)"/>
 <polyline points="56.000000 687.000000 56.000000 705.000000" style="stroke:rgb(255,0,0);stroke-width:0.9;fill:none;" transform="scale(0.75,0.75)"/>
 <polyline points="66.000000 705.000000 66.000000 687.000000" style="stroke:rgb(255,0,0);stroke-width:0.9;fill:none;" transform="scale(0.75,0.75)"/>
 <polygon points="66.000000 1233.000000 70.000000 1226.000000 66.000000 1229.000000" style="stroke:rgb(0,0,0);stroke-width:0;fill:rgb(255,0,0);" transform="scale(0.75,0.75)"/>
 <polyline points="66.000000 1233.000000 70.000000 1226.000000 66.000000 1229.000000" style="stroke:rgb(255,0,0);stroke-width:0.9;fill:none;" transform="scale(0.75,0.75)"/>
 <polygon points="56.000000 1149.000000 52.000000 1156.000000 56.000000 1153.000000" style="stroke:rgb(0,0,0);stroke-width:0;fill:rgb(255,0,0);" transform="scale(0.75,0.75)"/>
 <polyline points="56.000000 1149.000000 52.000000 1156.000000 56.000000 1153.000000" style="stroke:rgb(255,0,0);stroke-width:0.9;fill:none;" transform="scale(0.75,0.75)"/>
 <polygon points="66.000000 870.000000 70.000000 863.000000 66.000000 866.000000" style="stroke:rgb(0,0,0);stroke-width:0;fill:rgb(255,0,0);" transform="scale(0.75,0.75)"/>
 <polyline points="66.000000 870.000000 70.000000 863.000000 66.000000 866.000000" style="stroke:rgb(255,0,0);stroke-width:0.9;fill:none;" transform="scale(0.75,0.75)"/>
 <polyline points="56.000000 951.000000 56.000000 969.000000" style="stroke:rgb(255,0,0);stroke-width:0.9;fill:none;" transform="scale(0.75,0.75)"/>
 <polyline points="56.000000 1116.000000 56.000000 1134.000000" style="stroke:rgb(255,0,0);stroke-width:0.9;fill:none;" transform="scale(0.75,0.75)"/>
 <polyline points="66.000000 969.000000 66.000000 951.000000" style="stroke:rgb(255,0,0);stroke-width:0.9;fill:none;" transform="scale(0.75,0.75)"/>
 <polygon points="66.000000 1134.000000 70.000000 1127.000000 66.000000 1130.000000" style="stroke:rgb(0,0,0);stroke-width:0;fill:rgb(255,0,0);" transform="scale(0.75,0.75)"/>
 <polyline points="66.000000 1134.000000 70.000000 1127.000000 66.000000 1130.000000" style="stroke:rgb(255,0,0);stroke-width:0.9;fill:none;" transform="scale(0.75,0.75)"/>
 <polyline points="56.000000 1017.000000 56.000000 1035.000000" style="stroke:rgb(255,0,0);stroke-width:0.9;fill:none;" transform="scale(0.75,0.75)"/>
 <polyline points="56.000000 1149.000000 56.000000 1167.000000" style="stroke:rgb(255,0,0);stroke-width:0.9;fill:none;" transform="scale(0.75,0.75)"/>
 <polygon points="66.000000 1068.000000 70.000000 1061.000000 66.000000 1064.000000" style="stroke:rgb(0,0,0);stroke-width:0;fill:rgb(255,0,0);" transform="scale(0.75,0.75)"/>
 <polyline points="66.000000 1068.000000 70.000000 1061.000000 66.000000 1064.000000" style="stroke:rgb(255,0,0);stroke-width:0.9;fill:none;" transform="scale(0.75,0.75)"/>
 <polygon points="66.000000 936.000000 70.000000 929.000000 66.000000 932.000000" style="stroke:rgb(0,0,0);stroke-width:0;fill:rgb(255,0,0);" transform="scale(0.75,0.75)"/>
 <polyline points="66.000000 936.000000 70.000000 929.000000 66.000000 932.000000" style="stroke:rgb(255,0,0);stroke-width:0.9;fill:none;" transform="scale(0.75,0.75)"/>
 <polygon points="56.000000 753.000000 52.000000 760.000000 56.000000 757.000000" style="stroke:rgb(0,0,0);stroke-width:0;fill:rgb(255,0,0);" transform="scale(0.75,0.75)"/>
 <polyline points="56.000000 753.000000 52.000000 760.000000 56.000000 757.000000" style="stroke:rgb(255,0,0);stroke-width:0.9;fill:none;" transform="scale(0.75,0.75)"/>
 <polygon points="56.000000 1017.000000 52.000000 1024.000000 56.000000 1021.000000" style="stroke:rgb(0,0,0);stroke-width:0;fill:rgb(255,0,0);" transform="scale(0.75,0.75)"/>
 <polyline points="56.000000 1017.000000 52.000000 1024.000000 56.000000 1021.000000" style="stroke:rgb(255,0,0);stroke-width:0.9;fill:none;" transform="scale(0.75,0.75)"/>
 <polygon points="66.000000 1101.000000 70.000000 1094.000000 66.000000 1097.000000" style="stroke:rgb(0,0,0);stroke-width:0;fill:rgb(255,0,0);" transform="scale(0.75,0.75)"/>
 <polyline points="66.000000 1101.000000 70.000000 1094.000000 66.000000 1097.000000" style="stroke:rgb(255,0,0);stroke-width:0.9;fill:none;" transform="scale(0.75,0.75)"/>
 <polygon points="66.000000 804.000000 70.000000 797.000000 66.000000 800.000000" style="stroke:rgb(0,0,0);stroke-width:0;fill:rgb(255,0,0);" transform="scale(0.75,0.75)"/>
 <polyline points="66.000000 804.000000 70.000000 797.000000 66.000000 800.000000" style="stroke:rgb(255,0,0);stroke-width:0.9;fill:none;" transform="scale(0.75,0.75)"/>
 <polyline points="66.000000 1002.000000 66.000000 984.000000" style="stroke:rgb(255,0,0);stroke-width:0.9;fill:none;" transform="scale(0.75,0.75)"/>
 <polyline points="66.000000 1035.000000 66.000000 1017.000000" style="stroke:rgb(255,0,0);stroke-width:0.9;fill:none;" transform="scale(0.75,0.75)"/>
 <polyline points="66.000000 1101.000000 66.000000 1083.000000" style="stroke:rgb(255,0,0);stroke-width:0.9;fill:none;" transform="scale(0.75,0.75)"/>
 <polyline points="66.000000 936.000000 66.000000 918.000000" style="stroke:rgb(255,0,0);stroke-width:0.9;fill:none;" transform="scale(0.75,0.75)"/>
 <polyline points="56.000000 1050.000000 56.000000 1068.000000" style="stroke:rgb(255,0,0);stroke-width:0.9;fill:none;" transform="scale(0.75,0.75)"/>
 <polyline points="56.000000 1182.000000 56.000000 1200.000000" style="stroke:rgb(255,0,0);stroke-width:0.9;fill:none;" transform="scale(0.75,0.75)"/>
 <polygon points="56.000000 1182.000000 52.000000 1189.000000 56.000000 1186.000000" style="stroke:rgb(0,0,0);stroke-width:0;fill:rgb(255,0,0);" transform="scale(0.75,0.75)"/>
 <polyline points="56.000000 1182.000000 52.000000 1189.000000 56.000000 1186.000000" style="stroke:rgb(255,0,0);stroke-width:0.9;fill:none;" transform="scale(0.75,0.75)"/>
 <polygon points="56.000000 1215.000000 52.000000 1222.000000 56.000000 1219.000000" style="stroke:rgb(0,0,0);stroke-width:0;fill:rgb(255,0,0);" transform="scale(0.75,0.75)"/>
 <polyline points="56.000000 1215.000000 52.000000 1222.000000 56.000000 1219.000000" style="stroke:rgb(255,0,0);stroke-width:0.9;fill:none;" transform="scale(0.75,0.75)"/>
 <polygon points="56.000000 1083.000000 52.000000 1090.000000 56.000000 1087.000000" style="stroke:rgb(0,0,0);stroke-width:0;fill:rgb(255,0,0);" transform="scale(0.75,0.75)"/>
 <polyline points="56.000000 1083.000000 52.000000 1090.000000 56.000000 1087.000000" style="stroke:rgb(255,0,0);stroke-width:0.9;fill:none;" transform="scale(0.75,0.75)"/>
 <polygon points="56.000000 1116.000000 52.000000 1123.000000 56.000000 1120.000000" style="stroke:rgb(0,0,0);stroke-width:0;fill:rgb(255,0,0);" transform="scale(0.75,0.75)"/>
 <polyline points="56.000000 1116.000000 52.000000 1123.000000 56.000000 1120.000000" style="stroke:rgb(255,0,0);stroke-width:0.9;fill:none;" transform="scale(0.75,0.75)"/>
 <polygon points="66.000000 1035.000000 70.000000 1028.000000 66.000000 1031.000000" style="stroke:rgb(0,0,0);stroke-width:0;fill:rgb(255,0,0);" transform="scale(0.75,0.75)"/>
 <polyline points="66.000000 1035.000000 70.000000 1028.000000 66.000000 1031.000000" style="stroke:rgb(255,0,0);stroke-width:0.9;fill:none;" transform="scale(0.75,0.75)"/>
 <polygon points="56.000000 1050.000000 52.000000 1057.000000 56.000000 1054.000000" style="stroke:rgb(0,0,0);stroke-width:0;fill:rgb(255,0,0);" transform="scale(0.75,0.75)"/>
 <polyline points="56.000000 1050.000000 52.000000 1057.000000 56.000000 1054.000000" style="stroke:rgb(255,0,0);stroke-width:0.9;fill:none;" transform="scale(0.75,0.75)"/>
 <polyline points="66.000000 1233.000000 66.000000 1215.000000" style="stroke:rgb(255,0,0);stroke-width:0.9;fill:none;" transform="scale(0.75,0.75)"/>
 <polygon points="56.000000 951.000000 52.000000 958.000000 56.000000 955.000000" style="stroke:rgb(0,0,0);stroke-width:0;fill:rgb(255,0,0);" transform="scale(0.75,0.75)"/>
 <polyline points="56.000000 951.000000 52.000000 958.000000 56.000000 955.000000" style="stroke:rgb(255,0,0);stroke-width:0.9;fill:none;" transform="scale(0.75,0.75)"/>
 <polygon points="66.000000 837.000000 70.000000 830.000000 66.000000 833.000000" style="stroke:rgb(0,0,0);stroke-width:0;fill:rgb(255,0,0);" transform="scale(0.75,0.75)"/>
 <polyline points="66.000000 837.000000 70.000000 830.000000 66.000000 833.000000" style="stroke:rgb(255,0,0);stroke-width:0.9;fill:none;" transform="scale(0.75,0.75)"/>
 <polygon points="66.000000 1200.000000 70.000000 1193.000000 66.000000 1196.000000" style="stroke:rgb(0,0,0);stroke-width:0;fill:rgb(255,0,0);" transform="scale(0.75,0.75)"/>
 <polyline points="66.000000 1200.000000 70.000000 1193.000000 66.000000 1196.000000" style="stroke:rgb(255,0,0);stroke-width:0.9;fill:none;" transform="scale(0.75,0.75)"/>
 <polygon points="56.000000 720.000000 52.000000 727.000000 56.000000 724.000000" style="stroke:rgb(0,0,0);stroke-width:0;fill:rgb(255,0,0);" transform="scale(0.75,0.75)"/>
 <polyline points="56.000000 720.000000 52.000000 727.000000 56.000000 724.000000" style="stroke:rgb(255,0,0);stroke-width:0.9;fill:none;" transform="scale(0.75,0.75)"/>
 <polyline points="66.000000 1134.000000 66.000000 1116.000000" style="stroke:rgb(255,0,0);stroke-width:0.9;fill:none;" transform="scale(0.75,0.75)"/>
 <polygon points="56.000000 885.000000 52.000000 892.000000 56.000000 889.000000" style="stroke:rgb(0,0,0);stroke-width:0;fill:rgb(255,0,0);" transform="scale(0.75,0.75)"/>
 <polyline points="56.000000 885.000000 52.000000 892.000000 56.000000 889.000000" style="stroke:rgb(255,0,0);stroke-width:0.9;fill:none;" transform="scale(0.75,0.75)"/>
 <polygon points="56.000000 852.000000 52.000000 859.000000 56.000000 856.000000" style="stroke:rgb(0,0,0);stroke-width:0;fill:rgb(255,0,0);" transform="scale(0.75,0.75)"/>
 <polyline points="56.000000 852.000000 52.000000 859.000000 56.000000 856.000000" style="stroke:rgb(255,0,0);stroke-width:0.9;fill:none;" transform="scale(0.75,0.75)"/>
 <polyline points="56.000000 918.000000 56.000000 936.000000" style="stroke:rgb(255,0,0);stroke-width:0.9;fill:none;" transform="scale(0.75,0.75)"/>
 <polygon points="66.000000 1167.000000 70.000000 1160.000000 66.000000 1163.000000" style="stroke:rgb(0,0,0);stroke-width:0;fill:rgb(255,0,0);" transform="scale(0.75,0.75)"/>
 <polyline points="66.000000 1167.000000 70.000000 1160.000000 66.000000 1163.000000" style="stroke:rgb(255,0,0);stroke-width:0.9;fill:none;" transform="scale(0.75,0.75)"/>
 <polygon points="66.000000 738.000000 70.000000 731.000000 66.000000 734.000000" style="stroke:rgb(0,0,0);stroke-width:0;fill:rgb(255,0,0);" transform="scale(0.75,0.75)"/>
 <polyline points="66.000000 738.000000 70.000000 731.000000 66.000000 734.000000" style="stroke:rgb(255,0,0);stroke-width:0.9;fill:none;" transform="scale(0.75,0.75)"/>
 <polyline points="66.000000 1068.000000 66.000000 1050.000000" style="stroke:rgb(255,0,0);stroke-width:0.9;fill:none;" transform="scale(0.75,0.75)"/>
</svg>
